<svg width="1152" height="384" viewBox="0 0 1152 384" fill="none" xmlns="http://www.w3.org/2000/svg">
<path d="M104.799 126.1C101.468 128.216 98.2244 130.39 94.9809 132.564C92.1209 134.533 89.2317 136.56 86.4601 138.587C86.3717 138.587 86.3716 138.587 86.3716 138.675C86.0768 138.822 85.7818 138.969 85.4575 139.204C78.4401 144.169 71.7178 149.281 65.2898 154.541C63.1669 156.186 61.0735 157.92 59.0391 159.653C58.9506 159.653 58.9507 159.653 58.8917 159.8C56.8573 161.533 54.8229 163.267 52.8474 165C50.813 166.734 48.8373 168.526 46.9503 170.259C44.2967 172.58 41.7314 175.078 39.255 177.634C38.0461 178.692 36.9258 179.896 35.7758 181.013C4.9056 146.402 -6.94786 114.907 3.9916 95.9535C11.4512 83.0852 29.2898 76.3859 54.1744 76.3859C67.9731 76.3859 83.9242 78.4132 101.585 82.5558C112.23 85.0237 123.109 88.1969 134.107 92.0455C136.908 93.0151 139.68 94.014 142.481 95.0423C145.813 96.2469 149.115 97.5984 152.506 98.9499C148.643 100.83 144.722 102.857 140.888 104.973C135.67 107.676 130.539 110.526 125.409 113.464C118.45 117.548 111.523 121.752 104.799 126.1ZM306.183 202.991C337.053 237.602 348.907 269.097 337.967 288.05C326.35 308.059 289.878 313.082 240.37 301.448C229.726 298.98 218.846 295.806 207.849 291.958C205.048 290.988 202.276 289.989 199.475 288.961C196.143 287.756 192.841 286.405 189.45 285.053C193.313 283.085 197.234 281.146 201.067 279.03C206.286 276.328 211.416 273.478 216.547 270.54C223.564 266.485 230.523 262.254 237.216 257.906C243.467 253.851 249.599 249.709 255.497 245.419C255.644 245.331 255.792 245.272 255.939 245.184C256.175 245.037 256.322 244.949 256.529 244.802L276.667 229.465C278.79 227.82 280.883 226.086 282.918 224.353L283.065 224.206C285.1 222.473 287.134 220.739 289.11 219.006L306.183 202.991ZM113.412 70.0136C113.265 69.9255 113.117 69.9255 112.97 69.8667C127.682 25.9435 149.059 0 171.025 0C194.2 0 216.756 28.9693 231.498 77.4776C232.56 81.0032 233.533 84.5583 234.506 88.1722C234.742 89.2299 235.036 90.2876 235.272 91.3453C235.95 93.8133 236.57 96.3107 237.071 98.7786C237.307 99.7482 237.513 100.806 237.749 101.864C238.191 103.744 238.575 105.712 238.958 107.651C240.314 114.203 241.435 120.96 242.437 127.953C242.585 128.482 242.673 129.07 242.732 129.687C242.732 129.687 242.644 129.687 242.644 129.598V129.745C240.993 128.629 239.4 127.571 237.749 126.513C237.159 126.073 236.54 125.691 235.951 125.309C233.238 123.575 230.437 121.842 227.636 120.108C223.95 117.846 220.323 115.672 216.549 113.498C202.662 105.448 188.391 98.1611 174.12 91.7566C170.494 90.1113 166.808 88.5247 163.182 87.0263C162.356 86.6444 161.589 86.3506 160.852 86.0568C160.086 85.763 159.407 85.4692 158.729 85.2342C155.044 83.7358 151.329 82.2961 147.703 80.9446C141.894 78.7705 136.145 76.802 130.424 75.0098C127.564 74.0991 124.763 73.2177 121.903 72.3656C118.984 71.5136 116.184 70.7482 113.412 70.0136ZM88.4087 280.228C90.0009 288.044 91.7997 295.712 93.8342 303.174C48.3101 312.488 15.0244 307.023 4.02682 288.044C-7.59046 267.947 6.29726 234.043 41.1779 197.11C44.8635 193.115 48.8143 189.207 52.8835 185.388C54.7705 183.595 56.746 181.774 58.692 179.982C65.6504 173.665 73.1104 167.407 81.0412 161.325C80.7464 166.437 80.4513 171.549 80.2744 176.662C80.0385 181.774 79.9797 186.886 79.9797 191.999C79.9797 207.482 80.8053 223.141 82.309 238.625C82.309 238.86 82.3975 239.154 82.3975 239.389C83.5179 251.053 85.1099 262.335 87.0854 273.323C87.5276 275.644 87.9665 277.966 88.4087 280.228ZM228.577 313.986C228.725 314.075 228.872 314.075 229.019 314.133C214.307 358.057 192.931 384 170.964 384C147.789 384 125.233 355.031 110.491 306.522C109.518 303.349 108.604 300.118 107.778 296.827C107.336 295.24 106.864 293.595 106.481 291.949C105.567 288.483 104.741 284.869 104.004 281.343C103.326 278.111 102.648 274.879 102.029 271.559C101.646 269.385 101.262 267.123 100.908 264.948C100.377 262.01 99.9351 259.072 99.5518 256.075C99.4044 255.488 99.316 254.871 99.257 254.283H99.3455C100.319 254.959 101.232 255.576 102.205 256.164C104.181 257.515 106.127 258.72 108.103 260.013C110.137 261.364 112.26 262.657 114.353 263.92C118.039 266.182 121.666 268.356 125.44 270.531C139.327 278.581 153.598 285.867 167.868 292.272C171.495 293.917 175.181 295.504 178.807 297.002C179.574 297.296 180.311 297.678 181.077 297.972C181.844 298.266 182.581 298.559 183.259 298.794C186.945 300.293 190.66 301.732 194.286 303.084C200.095 305.258 205.844 307.227 211.565 309.019C214.425 309.93 217.226 310.811 220.086 311.663C223.005 312.486 225.806 313.252 228.577 313.986ZM337.964 95.9571C349.582 116.053 335.694 149.958 300.813 186.8V186.888C297.128 190.884 293.177 194.792 289.108 198.611C287.221 200.403 285.245 202.225 283.299 204.017C276.341 210.334 268.881 216.592 260.95 222.674C261.245 217.562 261.54 212.449 261.717 207.337C261.953 202.225 262.011 197.112 262.011 192C262.011 176.517 261.186 160.857 259.682 145.374C259.682 145.139 259.594 144.845 259.594 144.61C258.473 132.799 256.881 121.37 254.847 110.323C254.463 108.149 254.021 105.887 253.549 103.712C253.018 101.068 252.488 98.512 251.898 95.9563C250.778 90.7559 249.48 85.7904 248.124 80.8256C293.648 71.5119 326.937 77.0069 337.964 95.9571Z" fill="#7E31E1"/>
<path d="M486.815 204.769L463.038 181.19L472.549 171.713L496.212 195.292L486.815 204.769ZM458.056 204.769C449.904 204.769 442.866 203.002 436.94 199.467C431.053 195.932 426.505 190.986 423.297 184.631C420.127 178.275 418.542 170.885 418.542 162.461C418.542 154.038 420.127 146.648 423.297 140.292C426.505 133.937 431.053 128.991 436.94 125.456C442.866 121.921 449.904 120.154 458.056 120.154C466.208 120.154 473.228 121.921 479.116 125.456C485.041 128.991 489.589 133.937 492.759 140.292C495.967 146.648 497.571 154.038 497.571 162.461C497.571 170.885 495.967 178.275 492.759 184.631C489.589 190.986 485.041 195.932 479.116 199.467C473.228 203.002 466.208 204.769 458.056 204.769ZM458.056 190.328C463.227 190.403 467.529 189.294 470.964 187C474.398 184.706 476.964 181.453 478.663 177.241C480.399 173.029 481.267 168.102 481.267 162.461C481.267 156.82 480.399 151.932 478.663 147.795C476.964 143.658 474.398 140.443 470.964 138.149C467.529 135.855 463.227 134.67 458.056 134.595C452.886 134.52 448.584 135.629 445.149 137.923C441.715 140.217 439.129 143.47 437.393 147.682C435.695 151.894 434.846 156.82 434.846 162.461C434.846 168.102 435.695 172.991 437.393 177.128C439.129 181.265 441.715 184.48 445.149 186.774C448.584 189.068 452.886 190.253 458.056 190.328Z" fill="#7E31E1"/>
<path d="M531.629 204.882C526.836 204.882 522.93 204.073 519.911 202.456C516.892 200.839 514.533 198.79 512.834 196.308C511.174 193.826 509.985 191.249 509.268 188.579C508.551 185.872 508.117 183.408 507.966 181.19C507.815 178.971 507.74 177.354 507.74 176.338V142.154H523.364V170.923C523.364 172.314 523.439 174.101 523.59 176.282C523.741 178.426 524.213 180.588 525.006 182.769C525.798 184.95 527.081 186.774 528.855 188.241C530.667 189.708 533.214 190.441 536.498 190.441C537.819 190.441 539.234 190.234 540.743 189.82C542.253 189.407 543.668 188.617 544.989 187.451C546.31 186.248 547.386 184.499 548.216 182.205C549.084 179.873 549.518 176.827 549.518 173.067L558.35 177.241C558.35 182.055 557.368 186.567 555.406 190.779C553.443 194.991 550.481 198.395 546.518 200.99C542.593 203.585 537.63 204.882 531.629 204.882ZM551.443 203.077V182.882H549.518V142.154H565.029V203.077H551.443Z" fill="#7E31E1"/>
<path d="M597.835 204.769C593.457 204.769 589.739 203.942 586.682 202.287C583.663 200.595 581.361 198.357 579.776 195.574C578.228 192.754 577.455 189.651 577.455 186.267C577.455 183.446 577.889 180.87 578.757 178.538C579.625 176.207 581.021 174.157 582.946 172.39C584.908 170.585 587.531 169.08 590.815 167.877C593.079 167.049 595.778 166.316 598.91 165.677C602.042 165.038 605.59 164.436 609.553 163.872C613.516 163.27 617.875 162.612 622.63 161.897L617.082 164.944C617.082 161.333 616.214 158.682 614.478 156.99C612.742 155.297 609.836 154.451 605.76 154.451C603.495 154.451 601.137 154.997 598.684 156.087C596.231 157.178 594.513 159.114 593.532 161.897L579.606 157.497C581.153 152.458 584.059 148.359 588.324 145.2C592.589 142.041 598.401 140.461 605.76 140.461C611.157 140.461 615.95 141.289 620.139 142.944C624.328 144.598 627.498 147.456 629.65 151.518C630.857 153.774 631.574 156.031 631.801 158.287C632.027 160.544 632.141 163.063 632.141 165.846V203.077H618.667V190.554L620.592 193.149C617.611 197.248 614.384 200.219 610.912 202.061C607.477 203.867 603.118 204.769 597.835 204.769ZM601.118 192.697C603.948 192.697 606.326 192.208 608.251 191.231C610.214 190.215 611.761 189.068 612.893 187.79C614.063 186.511 614.856 185.439 615.271 184.574C616.063 182.92 616.516 181.002 616.63 178.82C616.78 176.602 616.856 174.759 616.856 173.292L621.385 174.42C616.818 175.173 613.119 175.812 610.289 176.338C607.458 176.827 605.175 177.279 603.439 177.692C601.703 178.106 600.175 178.557 598.854 179.046C597.344 179.648 596.117 180.306 595.174 181.02C594.268 181.697 593.589 182.449 593.136 183.277C592.721 184.104 592.513 185.026 592.513 186.041C592.513 187.432 592.853 188.636 593.532 189.651C594.249 190.629 595.249 191.381 596.533 191.908C597.816 192.434 599.344 192.697 601.118 192.697Z" fill="#7E31E1"/>
<path d="M688.526 203.077V174.308C688.526 172.916 688.45 171.149 688.299 169.005C688.148 166.824 687.677 164.643 686.884 162.461C686.092 160.28 684.79 158.456 682.978 156.99C681.204 155.523 678.676 154.79 675.392 154.79C674.071 154.79 672.656 154.997 671.146 155.41C669.637 155.824 668.221 156.632 666.9 157.836C665.58 159.002 664.485 160.732 663.617 163.026C662.787 165.32 662.372 168.366 662.372 172.164L653.54 167.99C653.54 163.176 654.522 158.663 656.484 154.451C658.447 150.239 661.391 146.836 665.316 144.241C669.278 141.646 674.26 140.349 680.261 140.349C685.054 140.349 688.96 141.157 691.979 142.774C694.998 144.391 697.338 146.441 698.999 148.923C700.697 151.405 701.905 154 702.622 156.708C703.339 159.378 703.773 161.822 703.924 164.041C704.075 166.26 704.151 167.877 704.151 168.892V203.077H688.526ZM646.747 203.077V142.154H660.447V162.349H662.372V203.077H646.747Z" fill="#7E31E1"/>
<path d="M755.524 203.077C751.297 203.867 747.145 204.205 743.069 204.092C739.031 204.017 735.408 203.321 732.2 202.005C729.03 200.651 726.615 198.489 724.954 195.518C723.444 192.735 722.652 189.914 722.576 187.056C722.501 184.161 722.463 180.889 722.463 177.241V125.231H737.861V176.338C737.861 178.708 737.88 180.851 737.918 182.769C737.994 184.649 738.39 186.154 739.107 187.282C740.465 189.426 742.636 190.591 745.617 190.779C748.599 190.967 751.901 190.817 755.524 190.328V203.077ZM712.047 154V142.154H755.524V154H712.047Z" fill="#7E31E1"/>
<path d="M791.906 204.882C787.113 204.882 783.207 204.073 780.188 202.456C777.168 200.839 774.81 198.79 773.111 196.308C771.451 193.826 770.262 191.249 769.545 188.579C768.828 185.872 768.394 183.408 768.243 181.19C768.092 178.971 768.016 177.354 768.016 176.338V142.154H783.641V170.923C783.641 172.314 783.716 174.101 783.867 176.282C784.018 178.426 784.49 180.588 785.282 182.769C786.075 184.95 787.358 186.774 789.132 188.241C790.944 189.708 793.491 190.441 796.774 190.441C798.095 190.441 799.511 190.234 801.02 189.82C802.53 189.407 803.945 188.617 805.266 187.451C806.587 186.248 807.663 184.499 808.493 182.205C809.361 179.873 809.795 176.827 809.795 173.067L818.626 177.241C818.626 182.055 817.645 186.567 815.683 190.779C813.72 194.991 810.757 198.395 806.794 200.99C802.87 203.585 797.907 204.882 791.906 204.882ZM811.72 203.077V182.882H809.795V142.154H825.307V203.077H811.72Z" fill="#7E31E1"/>
<path d="M914.722 203.077V167.087C914.722 163.063 913.76 159.942 911.835 157.723C909.948 155.467 907.325 154.338 903.966 154.338C901.815 154.338 899.947 154.846 898.362 155.861C896.776 156.839 895.531 158.231 894.625 160.036C893.757 161.803 893.323 163.853 893.323 166.185L886.87 161.897C886.87 157.723 887.851 154.038 889.813 150.841C891.814 147.644 894.474 145.162 897.796 143.395C901.154 141.59 904.872 140.687 908.948 140.687C915.93 140.687 921.195 142.755 924.742 146.892C928.328 150.991 930.12 156.369 930.12 163.026V203.077H914.722ZM841.015 203.077V142.154H854.601V162.349H856.526V203.077H841.015ZM877.925 203.077V167.087C877.925 163.063 876.963 159.942 875.038 157.723C873.151 155.467 870.528 154.338 867.169 154.338C863.961 154.338 861.376 155.448 859.414 157.667C857.489 159.848 856.526 162.687 856.526 166.185L850.073 161.672C850.073 157.685 851.073 154.113 853.073 150.954C855.073 147.795 857.753 145.294 861.112 143.451C864.508 141.608 868.301 140.687 872.49 140.687C877.283 140.687 881.208 141.702 884.265 143.733C887.36 145.764 889.644 148.472 891.115 151.856C892.587 155.241 893.323 158.964 893.323 163.026V203.077H877.925Z" fill="#7E31E1"/>
<path d="M978.807 154V142.154H993.526V154H978.807ZM949.936 203.077V142.379C949.936 140.838 949.974 139.089 950.049 137.133C950.125 135.178 950.427 133.203 950.955 131.21C951.521 129.217 952.54 127.412 954.012 125.795C955.899 123.689 957.937 122.26 960.126 121.508C962.353 120.718 964.504 120.304 966.58 120.267C968.655 120.191 970.429 120.154 971.901 120.154H979.487V132.564H972.467C970.052 132.564 968.259 133.185 967.089 134.426C965.919 135.629 965.334 137.077 965.334 138.769V203.077H949.936ZM940.312 154V142.154H979.487V154H940.312ZM992.96 203.077V120.154H1008.36V203.077H992.96Z" fill="#7E31E1"/>
<path d="M1048.09 204.882C1043.3 204.882 1039.39 204.073 1036.37 202.456C1033.35 200.839 1031 198.79 1029.3 196.308C1027.64 193.826 1026.45 191.249 1025.73 188.579C1025.01 185.872 1024.58 183.408 1024.43 181.19C1024.28 178.971 1024.2 177.354 1024.2 176.338V142.154H1039.83V170.923C1039.83 172.314 1039.9 174.101 1040.05 176.282C1040.2 178.426 1040.68 180.588 1041.47 182.769C1042.26 184.95 1043.54 186.774 1045.32 188.241C1047.13 189.708 1049.68 190.441 1052.96 190.441C1054.28 190.441 1055.7 190.234 1057.21 189.82C1058.72 189.407 1060.13 188.617 1061.45 187.451C1062.77 186.248 1063.85 184.499 1064.68 182.205C1065.55 179.873 1065.98 176.827 1065.98 173.067L1074.81 177.241C1074.81 182.055 1073.83 186.567 1071.87 190.779C1069.91 194.991 1066.94 198.395 1062.98 200.99C1059.06 203.585 1054.09 204.882 1048.09 204.882ZM1067.91 203.077V182.882H1065.98V142.154H1081.49V203.077H1067.91Z" fill="#7E31E1"/>
<path d="M1090.52 203.077L1112.37 172.277L1090.97 142.154H1109.09L1121.32 160.205L1133.32 142.154H1151.43L1130.04 172.277L1152 203.077H1133.88L1121.32 184.349L1108.64 203.077H1090.52Z" fill="#7E31E1"/>
<path d="M426.717 285.812V257.133H415.598V253.32H441.866V257.133H430.747V285.812H426.717Z" fill="#7E31E1"/>
<path d="M452.442 286.489C450.042 286.489 447.943 285.962 446.147 284.909C444.365 283.841 442.977 282.36 441.98 280.464C440.984 278.554 440.486 276.327 440.486 273.785C440.486 271.123 440.976 268.821 441.958 266.881C442.939 264.925 444.305 263.421 446.056 262.368C447.823 261.3 449.891 260.766 452.261 260.766C454.722 260.766 456.812 261.33 458.533 262.458C460.269 263.586 461.568 265.196 462.428 267.287C463.304 269.378 463.681 271.867 463.56 274.755H459.484V273.311C459.439 270.318 458.828 268.084 457.65 266.61C456.473 265.121 454.722 264.376 452.397 264.376C449.906 264.376 448.011 265.173 446.713 266.768C445.415 268.362 444.766 270.649 444.766 273.627C444.766 276.5 445.415 278.727 446.713 280.306C448.011 281.886 449.861 282.675 452.261 282.675C453.876 282.675 455.28 282.307 456.473 281.57C457.665 280.833 458.601 279.772 459.281 278.388L463.153 279.72C462.202 281.871 460.768 283.54 458.85 284.729C456.948 285.902 454.812 286.489 452.442 286.489ZM443.407 274.755V271.529H461.477V274.755H443.407Z" fill="#7E31E1"/>
<path d="M478.905 286.489C476.429 286.489 474.323 285.94 472.587 284.842C470.866 283.728 469.553 282.202 468.647 280.261C467.742 278.321 467.274 276.109 467.243 273.627C467.274 271.085 467.749 268.851 468.67 266.926C469.606 264.985 470.942 263.473 472.678 262.39C474.414 261.307 476.505 260.766 478.95 260.766C481.532 260.766 483.751 261.397 485.608 262.661C487.48 263.925 488.733 265.655 489.367 267.851L485.381 269.047C484.868 267.633 484.03 266.535 482.868 265.752C481.72 264.97 480.4 264.579 478.905 264.579C477.229 264.579 475.848 264.97 474.761 265.752C473.674 266.52 472.867 267.588 472.338 268.956C471.81 270.31 471.538 271.867 471.523 273.627C471.553 276.335 472.18 278.524 473.402 280.193C474.64 281.848 476.475 282.675 478.905 282.675C480.505 282.675 481.834 282.314 482.89 281.592C483.947 280.855 484.747 279.795 485.291 278.411L489.367 279.471C488.521 281.743 487.2 283.48 485.404 284.684C483.608 285.887 481.441 286.489 478.905 286.489Z" fill="#7E31E1"/>
<path d="M511.402 285.812V273.605C511.402 272.446 511.296 271.333 511.085 270.265C510.889 269.197 510.534 268.242 510.02 267.4C509.522 266.542 508.843 265.865 507.983 265.369C507.137 264.872 506.065 264.624 504.767 264.624C503.755 264.624 502.835 264.797 502.005 265.143C501.189 265.474 500.487 265.986 499.898 266.677C499.31 267.369 498.849 268.242 498.517 269.295C498.2 270.333 498.042 271.559 498.042 272.973L495.392 272.161C495.392 269.799 495.815 267.776 496.66 266.091C497.521 264.391 498.721 263.09 500.261 262.187C501.816 261.27 503.642 260.811 505.741 260.811C507.326 260.811 508.677 261.059 509.794 261.555C510.911 262.052 511.84 262.714 512.579 263.541C513.319 264.353 513.9 265.271 514.323 266.294C514.746 267.302 515.04 268.332 515.206 269.385C515.387 270.423 515.478 271.408 515.478 272.341V285.812H511.402ZM493.966 285.812V253.32H497.589V271.258H498.042V285.812H493.966Z" fill="#7E31E1"/>
<path d="M538.778 285.812V273.605C538.778 272.446 538.673 271.333 538.461 270.265C538.265 269.197 537.91 268.242 537.397 267.4C536.899 266.542 536.22 265.865 535.359 265.369C534.514 264.872 533.442 264.624 532.144 264.624C531.132 264.624 530.211 264.797 529.381 265.143C528.566 265.474 527.864 265.986 527.275 266.677C526.686 267.369 526.226 268.242 525.894 269.295C525.577 270.333 525.418 271.559 525.418 272.973L522.769 272.161C522.769 269.799 523.192 267.776 524.037 266.091C524.898 264.391 526.098 263.09 527.637 262.187C529.192 261.27 531.019 260.811 533.117 260.811C534.702 260.811 536.053 261.059 537.171 261.555C538.288 262.052 539.216 262.714 539.956 263.541C540.696 264.353 541.277 265.271 541.7 266.294C542.122 267.302 542.417 268.332 542.583 269.385C542.764 270.423 542.854 271.408 542.854 272.341V285.812H538.778ZM521.342 285.812V261.443H524.965V267.964H525.418V285.812H521.342Z" fill="#7E31E1"/>
<path d="M558.937 286.489C556.506 286.489 554.408 285.94 552.642 284.842C550.891 283.743 549.54 282.224 548.589 280.284C547.637 278.343 547.162 276.117 547.162 273.605C547.162 271.047 547.645 268.806 548.611 266.881C549.577 264.955 550.943 263.458 552.71 262.39C554.476 261.307 556.552 260.766 558.937 260.766C561.382 260.766 563.488 261.315 565.254 262.413C567.021 263.496 568.372 265.008 569.308 266.948C570.259 268.874 570.734 271.093 570.734 273.605C570.734 276.147 570.259 278.388 569.308 280.329C568.357 282.254 566.998 283.766 565.232 284.864C563.466 285.947 561.367 286.489 558.937 286.489ZM558.937 282.675C561.473 282.675 563.36 281.833 564.598 280.148C565.836 278.464 566.455 276.282 566.455 273.605C566.455 270.852 565.828 268.663 564.575 267.039C563.322 265.399 561.443 264.579 558.937 264.579C557.231 264.579 555.827 264.963 554.725 265.73C553.623 266.497 552.8 267.557 552.257 268.911C551.713 270.265 551.442 271.83 551.442 273.605C551.442 276.342 552.075 278.539 553.344 280.193C554.612 281.848 556.476 282.675 558.937 282.675Z" fill="#7E31E1"/>
<path d="M576.173 285.812V252.643H580.204V285.812H576.173Z" fill="#7E31E1"/>
<path d="M597.414 286.489C594.984 286.489 592.885 285.94 591.119 284.842C589.368 283.743 588.017 282.224 587.066 280.284C586.115 278.343 585.639 276.117 585.639 273.605C585.639 271.047 586.122 268.806 587.089 266.881C588.055 264.955 589.421 263.458 591.187 262.39C592.953 261.307 595.029 260.766 597.414 260.766C599.86 260.766 601.966 261.315 603.732 262.413C605.498 263.496 606.849 265.008 607.785 266.948C608.737 268.874 609.212 271.093 609.212 273.605C609.212 276.147 608.737 278.388 607.785 280.329C606.834 282.254 605.476 283.766 603.709 284.864C601.943 285.947 599.845 286.489 597.414 286.489ZM597.414 282.675C599.95 282.675 601.838 281.833 603.076 280.148C604.313 278.464 604.932 276.282 604.932 273.605C604.932 270.852 604.306 268.663 603.053 267.039C601.8 265.399 599.92 264.579 597.414 264.579C595.708 264.579 594.305 264.963 593.202 265.73C592.1 266.497 591.278 267.557 590.734 268.911C590.191 270.265 589.919 271.83 589.919 273.605C589.919 276.342 590.553 278.539 591.821 280.193C593.089 281.848 594.954 282.675 597.414 282.675Z" fill="#7E31E1"/>
<path d="M624.094 297.32C622.81 297.32 621.557 297.124 620.334 296.733C619.111 296.342 617.987 295.748 616.96 294.95C615.949 294.168 615.103 293.175 614.424 291.972L618.115 290.031C618.719 291.22 619.572 292.085 620.674 292.626C621.791 293.168 622.938 293.439 624.116 293.439C625.671 293.439 626.962 293.153 627.988 292.581C629.015 292.025 629.769 291.19 630.252 290.076C630.751 288.963 630.992 287.579 630.977 285.925V279.268H631.453V261.443H635.031V285.97C635.031 286.632 635.008 287.271 634.962 287.888C634.932 288.505 634.857 289.114 634.736 289.715C634.419 291.445 633.793 292.867 632.857 293.98C631.921 295.108 630.713 295.943 629.234 296.485C627.754 297.041 626.041 297.32 624.094 297.32ZM623.799 286.489C621.519 286.489 619.565 285.925 617.934 284.796C616.304 283.653 615.043 282.111 614.152 280.171C613.277 278.23 612.839 276.042 612.839 273.605C612.839 271.168 613.277 268.979 614.152 267.039C615.043 265.098 616.304 263.571 617.934 262.458C619.565 261.33 621.512 260.766 623.776 260.766C626.086 260.766 628.026 261.322 629.596 262.435C631.166 263.549 632.351 265.075 633.151 267.016C633.966 268.956 634.374 271.153 634.374 273.605C634.374 276.027 633.966 278.215 633.151 280.171C632.351 282.111 631.166 283.653 629.596 284.796C628.026 285.925 626.093 286.489 623.799 286.489ZM624.297 282.811C625.943 282.811 627.294 282.42 628.35 281.638C629.407 280.84 630.184 279.75 630.683 278.366C631.196 276.967 631.453 275.38 631.453 273.605C631.453 271.8 631.196 270.213 630.683 268.844C630.184 267.46 629.415 266.384 628.373 265.617C627.332 264.835 626.01 264.444 624.41 264.444C622.75 264.444 621.376 264.85 620.289 265.662C619.217 266.474 618.417 267.573 617.889 268.956C617.375 270.34 617.119 271.89 617.119 273.605C617.119 275.335 617.383 276.899 617.911 278.298C618.44 279.682 619.232 280.78 620.289 281.592C621.361 282.405 622.697 282.811 624.297 282.811Z" fill="#7E31E1"/>
<path d="M644.75 296.643L649.482 283.826L649.55 287.617L638.862 261.443H643.097L651.475 282.495H650.026L657.883 261.443H661.982L648.667 296.643H644.75Z" fill="#7E31E1"/>
<path d="M674.789 285.812V253.32H687.673C687.99 253.32 688.368 253.335 688.806 253.365C689.244 253.38 689.666 253.425 690.074 253.5C691.84 253.771 693.32 254.373 694.512 255.305C695.72 256.238 696.626 257.419 697.229 258.848C697.833 260.262 698.135 261.834 698.135 263.564C698.135 265.279 697.826 266.85 697.207 268.28C696.603 269.694 695.697 270.874 694.489 271.822C693.297 272.755 691.825 273.356 690.074 273.627C689.666 273.687 689.244 273.733 688.806 273.763C688.368 273.793 687.99 273.808 687.673 273.808H678.82V285.812H674.789ZM678.82 269.994H687.538C687.825 269.994 688.149 269.979 688.511 269.949C688.889 269.919 689.243 269.867 689.576 269.791C690.617 269.551 691.463 269.114 692.112 268.483C692.776 267.836 693.259 267.084 693.561 266.226C693.863 265.354 694.014 264.466 694.014 263.564C694.014 262.661 693.863 261.781 693.561 260.924C693.259 260.051 692.776 259.292 692.112 258.645C691.463 257.998 690.617 257.562 689.576 257.336C689.243 257.246 688.889 257.193 688.511 257.178C688.149 257.148 687.825 257.133 687.538 257.133H678.82V269.994Z" fill="#7E31E1"/>
<path d="M702.652 285.812V261.443H706.253V267.332L705.664 266.565C705.951 265.813 706.321 265.121 706.773 264.489C707.241 263.857 707.762 263.338 708.336 262.932C708.97 262.42 709.687 262.029 710.487 261.759C711.287 261.488 712.102 261.33 712.932 261.285C713.763 261.224 714.54 261.277 715.265 261.443V265.211C714.42 264.985 713.491 264.925 712.48 265.03C711.468 265.136 710.532 265.504 709.672 266.136C708.887 266.693 708.275 267.369 707.838 268.167C707.415 268.964 707.12 269.829 706.954 270.762C706.788 271.679 706.705 272.619 706.705 273.582V285.812H702.652Z" fill="#7E31E1"/>
<path d="M720 257.133V252.981H724.03V257.133H720ZM720 285.812V261.443H724.03V285.812H720Z" fill="#7E31E1"/>
<path d="M737.437 285.812L728.56 261.443H732.636L739.497 280.69L746.336 261.443H750.435L741.558 285.812H737.437Z" fill="#7E31E1"/>
<path d="M760.111 286.489C758.285 286.489 756.752 286.158 755.514 285.496C754.292 284.819 753.363 283.931 752.729 282.833C752.11 281.735 751.801 280.532 751.801 279.223C751.801 277.944 752.042 276.839 752.525 275.906C753.023 274.958 753.718 274.176 754.609 273.56C755.499 272.928 756.564 272.431 757.801 272.07C758.964 271.754 760.262 271.484 761.697 271.258C763.146 271.017 764.61 270.799 766.089 270.604C767.569 270.408 768.95 270.22 770.233 270.04L768.784 270.874C768.829 268.708 768.392 267.106 767.471 266.068C766.565 265.03 764.995 264.511 762.761 264.511C761.281 264.511 759.983 264.85 758.866 265.527C757.764 266.189 756.986 267.272 756.533 268.776L752.707 267.625C753.295 265.489 754.435 263.812 756.126 262.593C757.817 261.375 760.043 260.766 762.806 260.766C765.025 260.766 766.927 261.164 768.512 261.962C770.112 262.744 771.26 263.932 771.954 265.527C772.302 266.279 772.52 267.099 772.611 267.986C772.701 268.859 772.747 269.776 772.747 270.739V285.812H769.169V279.968L770.007 280.509C769.086 282.48 767.795 283.969 766.135 284.977C764.489 285.985 762.481 286.489 760.111 286.489ZM760.723 283.127C762.172 283.127 763.425 282.871 764.482 282.36C765.553 281.833 766.414 281.149 767.063 280.306C767.712 279.449 768.135 278.516 768.331 277.508C768.558 276.756 768.678 275.921 768.693 275.004C768.724 274.071 768.739 273.356 768.739 272.86L770.143 273.469C768.829 273.65 767.539 273.823 766.271 273.988C765.003 274.154 763.802 274.334 762.67 274.53C761.538 274.71 760.519 274.928 759.613 275.184C758.949 275.395 758.322 275.666 757.734 275.996C757.16 276.327 756.692 276.756 756.33 277.283C755.982 277.794 755.809 278.433 755.809 279.201C755.809 279.862 755.975 280.494 756.307 281.096C756.654 281.698 757.183 282.187 757.892 282.563C758.617 282.939 759.56 283.127 760.723 283.127Z" fill="#7E31E1"/>
<path d="M792.289 285.812C790.84 286.098 789.405 286.21 787.986 286.15C786.582 286.105 785.329 285.827 784.227 285.315C783.125 284.789 782.288 283.977 781.714 282.879C781.231 281.916 780.967 280.946 780.922 279.968C780.891 278.975 780.876 277.854 780.876 276.606V254.673H784.907V276.425C784.907 277.418 784.914 278.268 784.929 278.975C784.959 279.682 785.118 280.291 785.405 280.803C785.948 281.765 786.809 282.329 787.986 282.495C789.179 282.66 790.613 282.615 792.289 282.36V285.812ZM775.917 264.76V261.443H792.289V264.76H775.917Z" fill="#7E31E1"/>
<path d="M806.834 286.489C804.434 286.489 802.336 285.962 800.539 284.909C798.758 283.841 797.369 282.36 796.372 280.464C795.376 278.554 794.878 276.327 794.878 273.785C794.878 271.123 795.369 268.821 796.35 266.881C797.331 264.925 798.697 263.421 800.448 262.368C802.215 261.3 804.283 260.766 806.653 260.766C809.114 260.766 811.205 261.33 812.926 262.458C814.662 263.586 815.96 265.196 816.82 267.287C817.696 269.378 818.073 271.867 817.953 274.755H813.877V273.311C813.831 270.318 813.22 268.084 812.043 266.61C810.865 265.121 809.114 264.376 806.789 264.376C804.298 264.376 802.403 265.173 801.105 266.768C799.807 268.362 799.158 270.649 799.158 273.627C799.158 276.5 799.807 278.727 801.105 280.306C802.403 281.886 804.253 282.675 806.653 282.675C808.269 282.675 809.672 282.307 810.865 281.57C812.058 280.833 812.994 279.772 813.673 278.388L817.545 279.72C816.594 281.871 815.16 283.54 813.242 284.729C811.34 285.902 809.204 286.489 806.834 286.489ZM797.799 274.755V271.529H815.869V274.755H797.799Z" fill="#7E31E1"/>
<path d="M832.514 285.812V253.32H836.544V281.999H851.671V285.812H832.514Z" fill="#7E31E1"/>
<path d="M855.954 257.133V252.981H859.985V257.133H855.954ZM855.954 285.812V261.443H859.985V285.812H855.954Z" fill="#7E31E1"/>
<path d="M896.013 285.812L896.036 270.22C896.036 268.4 895.545 266.978 894.564 265.955C893.598 264.918 892.337 264.399 890.782 264.399C889.876 264.399 889.016 264.609 888.201 265.03C887.385 265.436 886.721 266.083 886.208 266.971C885.695 267.843 885.438 268.964 885.438 270.333L883.309 269.475C883.279 267.746 883.634 266.234 884.374 264.94C885.129 263.631 886.155 262.616 887.453 261.894C888.752 261.172 890.216 260.811 891.846 260.811C894.397 260.811 896.405 261.586 897.87 263.135C899.334 264.669 900.066 266.738 900.066 269.34L900.044 285.812H896.013ZM866.756 285.812V261.443H870.357V267.964H870.81V285.812H866.756ZM881.407 285.812L881.43 270.378C881.43 268.513 880.947 267.054 879.981 266.001C879.015 264.933 877.731 264.399 876.131 264.399C874.546 264.399 873.263 264.94 872.282 266.023C871.3 267.106 870.81 268.543 870.81 270.333L868.681 269.069C868.681 267.49 869.058 266.076 869.813 264.827C870.568 263.579 871.595 262.601 872.893 261.894C874.191 261.172 875.663 260.811 877.309 260.811C878.954 260.811 880.388 261.157 881.611 261.849C882.834 262.541 883.777 263.534 884.441 264.827C885.106 266.106 885.438 267.633 885.438 269.408L885.415 285.812H881.407Z" fill="#7E31E1"/>
<path d="M906.417 257.133V252.981H910.448V257.133H906.417ZM906.417 285.812V261.443H910.448V285.812H906.417Z" fill="#7E31E1"/>
<path d="M930.897 285.812C929.447 286.098 928.013 286.21 926.594 286.15C925.19 286.105 923.937 285.827 922.835 285.315C921.733 284.789 920.896 283.977 920.322 282.879C919.839 281.916 919.575 280.946 919.529 279.968C919.499 278.975 919.484 277.854 919.484 276.606V254.673H923.515V276.425C923.515 277.418 923.522 278.268 923.537 278.975C923.568 279.682 923.726 280.291 924.013 280.803C924.556 281.765 925.417 282.329 926.594 282.495C927.787 282.66 929.221 282.615 930.897 282.36V285.812ZM914.525 264.76V261.443H930.897V264.76H914.525Z" fill="#7E31E1"/>
<path d="M945.442 286.489C943.042 286.489 940.944 285.962 939.147 284.909C937.366 283.841 935.977 282.36 934.981 280.464C933.984 278.554 933.486 276.327 933.486 273.785C933.486 271.123 933.977 268.821 934.958 266.881C935.939 264.925 937.306 263.421 939.057 262.368C940.823 261.3 942.891 260.766 945.261 260.766C947.722 260.766 949.813 261.33 951.534 262.458C953.27 263.586 954.568 265.196 955.428 267.287C956.304 269.378 956.681 271.867 956.561 274.755H952.485V273.311C952.439 270.318 951.828 268.084 950.65 266.61C949.473 265.121 947.722 264.376 945.397 264.376C942.906 264.376 941.012 265.173 939.713 266.768C938.415 268.362 937.766 270.649 937.766 273.627C937.766 276.5 938.415 278.727 939.713 280.306C941.012 281.886 942.861 282.675 945.261 282.675C946.876 282.675 948.28 282.307 949.473 281.57C950.666 280.833 951.602 279.772 952.281 278.388L956.153 279.72C955.202 281.871 953.768 283.54 951.851 284.729C949.949 285.902 947.812 286.489 945.442 286.489ZM936.407 274.755V271.529H954.477V274.755H936.407Z" fill="#7E31E1"/>
<path d="M971.203 286.489C968.924 286.489 966.969 285.925 965.339 284.796C963.708 283.653 962.448 282.111 961.557 280.171C960.681 278.23 960.244 276.042 960.244 273.605C960.244 271.168 960.681 268.979 961.557 267.039C962.448 265.098 963.708 263.571 965.339 262.458C966.969 261.33 968.916 260.766 971.181 260.766C973.49 260.766 975.43 261.322 977 262.435C978.57 263.549 979.755 265.075 980.555 267.016C981.371 268.956 981.778 271.153 981.778 273.605C981.778 276.027 981.371 278.215 980.555 280.171C979.755 282.111 978.57 283.653 977 284.796C975.43 285.925 973.498 286.489 971.203 286.489ZM971.702 282.811C973.347 282.811 974.698 282.42 975.755 281.638C976.812 280.84 977.589 279.75 978.087 278.366C978.6 276.967 978.857 275.38 978.857 273.605C978.857 271.8 978.6 270.213 978.087 268.844C977.589 267.46 976.819 266.384 975.778 265.617C974.736 264.835 973.415 264.444 971.815 264.444C970.154 264.444 968.78 264.85 967.693 265.662C966.622 266.474 965.821 267.573 965.293 268.956C964.78 270.34 964.523 271.89 964.523 273.605C964.523 275.335 964.787 276.899 965.316 278.298C965.844 279.682 966.637 280.78 967.693 281.592C968.765 282.405 970.101 282.811 971.702 282.811ZM978.857 285.812V267.873H978.404V253.32H982.457V285.812H978.857Z" fill="#7E31E1"/>
</svg>
